<?xml version="1.0" encoding="UTF-8"?>
<svg id="Layer_2" xmlns="http://www.w3.org/2000/svg" viewBox="0 0 841.89 595.28">
  <defs>
    <style>
      .cls-1 {
        fill: #ed176d;
      }
    </style>
  </defs>
  <path class="cls-1" d="M436.24,406.71V124.38c1.39,1.72,3.28,3.7,5.77,5.61,4.44,3.39,8.85,5.02,11.83,5.84,2.42-.01,14.01.18,23.16,9.26,6.29,6.24,8.17,13.43,8.78,16.46,3.01-1.65,7.64-3.69,13.59-4.47,10.76-1.42,19.21,2.13,22.78,3.9,2.82,1.41,6.92,3.95,10.64,8.31,6.87,8.06,7.92,17.08,8.14,20.51,3.45-1.21,9.15-2.74,16.28-2.49,6.74.23,12.06,1.96,15.37,3.32,2.84,1.41,10.22,5.55,15.13,14.44,4.15,7.52,4.42,14.59,4.34,17.82,3.72-.55,10.36-1,17.92,1.51,12.5,4.16,18.98,13.56,20.91,16.64,1.25,3.48,2.57,8.21,3.07,13.93.59,6.72-.16,12.37-1.01,16.34,3.56.67,9.02,2.16,14.69,5.85,8.89,5.77,13.13,13.55,14.83,17.18,1.12,4.13,2.15,8.91,2.82,14.26.82,6.5.94,12.35.74,17.32-.38.26-5.88,4.13-5.69,10.85.14,5.02,3.39,9.57,8.25,11.48,0,0,0,7.49,8.47,11.73,1.82,3.73,3.64,7.45,5.45,11.18.71,1.36,1.46,3.24,1.8,5.56.85,5.93-1.68,10.6-2.69,12.26l6.52,1.3v16.42h-251.88Z"/>
  <path class="cls-1" d="M436.24,406.71V124.38c-1.39,1.72-3.28,3.7-5.77,5.61-4.44,3.39-8.85,5.02-11.83,5.84-2.42-.01-14.01.18-23.16,9.26-6.29,6.24-8.17,13.43-8.78,16.46-3.01-1.65-7.64-3.69-13.59-4.47-10.76-1.42-19.21,2.13-22.78,3.9-2.82,1.41-6.92,3.95-10.64,8.31-6.87,8.06-7.92,17.08-8.14,20.51-3.45-1.21-9.15-2.74-16.28-2.49-6.74.23-12.06,1.96-15.37,3.32-2.84,1.41-10.22,5.55-15.13,14.44-4.15,7.52-4.42,14.59-4.34,17.82-3.72-.55-10.36-1-17.92,1.51-12.5,4.16-18.98,13.56-20.91,16.64-1.25,3.48-2.57,8.21-3.07,13.93-.59,6.72.16,12.37,1.01,16.34-3.56.67-9.02,2.16-14.69,5.85-8.89,5.77-13.13,13.55-14.83,17.18-1.12,4.13-2.15,8.91-2.82,14.26-.82,6.5-.94,12.35-.74,17.32.38.26,5.88,4.13,5.69,10.85-.14,5.02-3.39,9.57-8.25,11.48,0,0,0,7.49-8.47,11.73-1.82,3.73-3.64,7.45-5.45,11.18-.71,1.36-1.46,3.24-1.8,5.56-.85,5.93,1.68,10.6,2.69,12.26l-6.52,1.3v9.78s0,6.65,0,6.65h251.88Z"/>
</svg>