<?xml version="1.0" encoding="UTF-8"?>
<svg xmlns="http://www.w3.org/2000/svg" viewBox="0 0 902.01 140.73">
  <defs>
    <style>
      .cls-1 {
        fill: #aa161d;
      }

      .cls-2 {
        fill: #6b0d11;
        opacity: .41;
      }

      .cls-3 {
        fill: #fff;
      }
    </style>
  </defs>
  <g id="Layer_1">
    <circle class="cls-3" cx="197.12" cy="10.1" r="10.1"/>
  </g>
  <g id="Layer_3">
    <g>
      <path class="cls-1" d="M45.45,108.97c.88-.25,2.53-.84,4.11-2.29,1.82-1.68,2.54-3.58,2.82-4.47l1.73-43.14s.15-5.42,4.85-9.83c0,0,3.67-1.47,3.97-7.05,0,0,2.76-8.67,19.6-8.23v8.52l1.54,98.26H.06v-9.25s-1.54-12.1,10.56-15.5c11.61-2.34,23.22-4.67,34.83-7.01Z"/>
      <path class="cls-1" d="M118.71,108.97c-.88-.25-2.53-.84-4.11-2.29-1.82-1.68-2.54-3.58-2.82-4.47l-1.73-43.14s-.15-5.42-4.85-9.83c0,0-3.67-1.47-3.97-7.05,0,0-2.76-8.67-19.6-8.23v8.52s-1.54,98.26-1.54,98.26h84s0-9.25,0-9.25c0,0,1.54-12.1-10.56-15.5-11.61-2.34-23.22-4.67-34.83-7.01Z"/>
      <circle class="cls-3" cx="82.19" cy="49.79" r="7.38"/>
      <path class="cls-2" d="M12.63,140.73v-9.64s-.55-4.67,4.67-5.49l32.41-6.87s9.61-.55,10.99-8.51l2.2-48.13s-.32-4.29,1.76-7.14c0,0,4.79-2.46,4.28-7,0,0,.41-10.25,12.71-14,0,0-13.96-1.43-18.71,8.23,0,0,.06,5.48-3.97,7.05,0,0-5.16,3.19-4.85,9.83s-1.73,43.14-1.73,43.14c0,0-1.24,5.31-6.92,6.76l-34.83,7.01s-8.38,1.84-10.22,10.52l-.34,14.24h12.57Z"/>
    </g>
    <g>
      <path class="cls-1" d="M783.3,108.97c.88-.25,2.53-.84,4.11-2.29,1.82-1.68,2.54-3.58,2.82-4.47l1.73-43.14s.15-5.42,4.85-9.83c0,0,3.67-1.47,3.97-7.05,0,0,2.76-8.67,19.6-8.23v8.52l1.54,98.26h-84v-9.25s-1.54-12.1,10.56-15.5c11.61-2.34,23.22-4.67,34.83-7.01Z"/>
      <path class="cls-1" d="M856.57,108.97c-.88-.25-2.53-.84-4.11-2.29-1.82-1.68-2.54-3.58-2.82-4.47l-1.73-43.14s-.15-5.42-4.85-9.83c0,0-3.67-1.47-3.97-7.05,0,0-2.76-8.67-19.6-8.23v8.52s-1.54,98.26-1.54,98.26h84s0-9.25,0-9.25c0,0,1.54-12.1-10.56-15.5-11.61-2.34-23.22-4.67-34.83-7.01Z"/>
      <circle class="cls-3" cx="820.05" cy="49.79" r="7.38"/>
      <path class="cls-2" d="M750.49,140.73v-9.64s-.55-4.67,4.67-5.49l32.41-6.87s9.61-.55,10.99-8.51l2.2-48.13s-.32-4.29,1.76-7.14c0,0,4.79-2.46,4.28-7,0,0,.41-10.25,12.71-14,0,0-13.96-1.43-18.71,8.23,0,0,.06,5.48-3.97,7.05,0,0-5.16,3.19-4.85,9.83s-1.73,43.14-1.73,43.14c0,0-1.24,5.31-6.92,6.76l-34.83,7.01s-8.38,1.84-10.22,10.52l-.34,14.24h12.57Z"/>
    </g>
  </g>
</svg>